HIERARCHY
ROOT ZeroOut_JNT
{
  OFFSET 0 0 0
  CHANNELS 6 Xposition Yposition Zposition Zrotation Xrotation Yrotation
  JOINT SpineFinal_1_JNT
  {
    OFFSET 1.09941 64.002 -42.9966
    CHANNELS 6 Xposition Yposition Zposition Zrotation Xrotation Yrotation
    JOINT l_legIKClavicle_Root_JNT
    {
      OFFSET -2.64853 -0.810668 10.7015
      CHANNELS 6 Xposition Yposition Zposition Zrotation Xrotation Yrotation
      JOINT l_legBlendRoot_JNT
      {
        OFFSET 16.1374 0 0
        CHANNELS 6 Xposition Yposition Zposition Zrotation Xrotation Yrotation
        JOINT l_legBlendMiddle_JNT
        {
          OFFSET 27.0969 0 0
          CHANNELS 6 Xposition Yposition Zposition Zrotation Xrotation Yrotation
          JOINT l_legBlendEnd_JNT
          {
            OFFSET 24.8414 0 0
            CHANNELS 6 Xposition Yposition Zposition Zrotation Xrotation Yrotation
            JOINT l_legBlendTip_JNT
            {
              OFFSET 6.77858 0 0
              CHANNELS 6 Xposition Yposition Zposition Zrotation Xrotation Yrotation
              End Site
              {
                OFFSET 0 0 0
              }
            }
          }
        }
      }
    }
    JOINT SpineFinal_2_JNT
    {
      OFFSET -19.9136 -1.49144 0.993757
      CHANNELS 6 Xposition Yposition Zposition Zrotation Xrotation Yrotation
      JOINT SpineFinal_3_JNT
      {
        OFFSET -19.2001 3.24201 2.0363
        CHANNELS 6 Xposition Yposition Zposition Zrotation Xrotation Yrotation
        JOINT SpineFinal_4_JNT
        {
          OFFSET -19.1272 6.18264 0.824529
          CHANNELS 6 Xposition Yposition Zposition Zrotation Xrotation Yrotation
          JOINT SpineFinal_5_JNT
          {
            OFFSET -18.1852 7.21578 -1.20318
            CHANNELS 6 Xposition Yposition Zposition Zrotation Xrotation Yrotation
            JOINT SpineFinal_6_JNT
            {
              OFFSET -19.144 8.35871 0
              CHANNELS 6 Xposition Yposition Zposition Zrotation Xrotation Yrotation
              JOINT SpineFinal_7_JNT
              {
                OFFSET -16.3943 7.24542 0
                CHANNELS 6 Xposition Yposition Zposition Zrotation Xrotation Yrotation
                JOINT SpineFinal_8_JNT
                {
                  OFFSET -19.3877 2.40349 0
                  CHANNELS 6 Xposition Yposition Zposition Zrotation Xrotation Yrotation
                  JOINT head_JNT
                  {
                    OFFSET -13.796 -11.6756 0
                    CHANNELS 6 Xposition Yposition Zposition Zrotation Xrotation Yrotation
                    JOINT l_hornRoot_JNT
                    {
                      OFFSET -15.825 14.8229 15.3879
                      CHANNELS 6 Xposition Yposition Zposition Zrotation Xrotation Yrotation
                      JOINT l_hornMid_JNT
                      {
                        OFFSET 6.55118 0 0
                        CHANNELS 6 Xposition Yposition Zposition Zrotation Xrotation Yrotation
                        JOINT l_hornEnd_JNT
                        {
                          OFFSET 6.73503 0 0
                          CHANNELS 6 Xposition Yposition Zposition Zrotation Xrotation Yrotation
                          End Site
                          {
                            OFFSET 0 0 0
                          }
                        }
                      }
                    }
                    JOINT headJend_JNT
                    {
                      OFFSET 1.34858 -27.5886 0
                      CHANNELS 6 Xposition Yposition Zposition Zrotation Xrotation Yrotation
                      End Site
                      {
                        OFFSET -0.885571 -8.63314 -0.143146
                      }
                    }
                    JOINT r_hornRoot_JNT
                    {
                      OFFSET -15.825 14.8229 -15.3879
                      CHANNELS 6 Xposition Yposition Zposition Zrotation Xrotation Yrotation
                      JOINT r_hornMid_JNT
                      {
                        OFFSET -2.40814 5.46468 -2.69372
                        CHANNELS 6 Xposition Yposition Zposition Zrotation Xrotation Yrotation
                        JOINT r_hornEnd_JNT
                        {
                          OFFSET -2.40922 6.0083 -1.85921
                          CHANNELS 6 Xposition Yposition Zposition Zrotation Xrotation Yrotation
                          End Site
                          {
                            OFFSET 0 0 0
                          }
                        }
                      }
                    }
                    JOINT m_upLip_JNT
                    {
                      OFFSET 4.72477 -9.87974 0
                      CHANNELS 6 Xposition Yposition Zposition Zrotation Xrotation Yrotation
                      JOINT l_lipUpRoot_JNT
                      {
                        OFFSET 2.68891 -0.690234 4.02874
                        CHANNELS 6 Xposition Yposition Zposition Zrotation Xrotation Yrotation
                        JOINT l_lipUpEnd_JNT
                        {
                          OFFSET 0 0 -14.9226
                          CHANNELS 6 Xposition Yposition Zposition Zrotation Xrotation Yrotation
                          End Site
                          {
                            OFFSET 0 0 0
                          }
                        }
                      }
                      JOINT m_upLipRoot_JNT
                      {
                        OFFSET 0 0 3.94939
                        CHANNELS 6 Xposition Yposition Zposition Zrotation Xrotation Yrotation
                        JOINT m_upLipEnd_JNT
                        {
                          OFFSET 0 0 15.0019
                          CHANNELS 6 Xposition Yposition Zposition Zrotation Xrotation Yrotation
                          End Site
                          {
                            OFFSET 0 0 0
                          }
                        }
                      }
                      JOINT r_lipUpRoot_JNT
                      {
                        OFFSET -2.689 -0.690236 4.02875
                        CHANNELS 6 Xposition Yposition Zposition Zrotation Xrotation Yrotation
                        JOINT r_lipUpEnd_JNT
                        {
                          OFFSET 9.35075e-005 -0.000392738 14.9226
                          CHANNELS 6 Xposition Yposition Zposition Zrotation Xrotation Yrotation
                          End Site
                          {
                            OFFSET 0 0 0
                          }
                        }
                      }
                    }
                    JOINT m_DnLip_JNT
                    {
                      OFFSET 6.0207 -9.81639 0
                      CHANNELS 6 Xposition Yposition Zposition Zrotation Xrotation Yrotation
                      JOINT l_lipDn_JNT
                      {
                        OFFSET 2.71301 -0.162748 3.99146
                        CHANNELS 6 Xposition Yposition Zposition Zrotation Xrotation Yrotation
                        JOINT l_lipEnd_JNT
                        {
                          OFFSET 0 0 -14.9599
                          CHANNELS 6 Xposition Yposition Zposition Zrotation Xrotation Yrotation
                          End Site
                          {
                            OFFSET 0 0 0
                          }
                        }
                      }
                      JOINT m_dnLip_JNT
                      {
                        OFFSET 0 -0.0431035 3.99141
                        CHANNELS 6 Xposition Yposition Zposition Zrotation Xrotation Yrotation
                        JOINT m_dnLipEnd_JNT
                        {
                          OFFSET 0 0 14.9599
                          CHANNELS 6 Xposition Yposition Zposition Zrotation Xrotation Yrotation
                          End Site
                          {
                            OFFSET 0 0 0
                          }
                        }
                      }
                      JOINT r_lipDn_JNT
                      {
                        OFFSET -2.71301 -0.162761 3.99141
                        CHANNELS 6 Xposition Yposition Zposition Zrotation Xrotation Yrotation
                        JOINT r_lipDnEnd_JNT
                        {
                          OFFSET 0 0 14.9599
                          CHANNELS 6 Xposition Yposition Zposition Zrotation Xrotation Yrotation
                          End Site
                          {
                            OFFSET 0 0 0
                          }
                        }
                      }
                    }
                    JOINT l_lid_JNT
                    {
                      OFFSET -7.85698 -6.72885 9.63956
                      CHANNELS 6 Xposition Yposition Zposition Zrotation Xrotation Yrotation
                      End Site
                      {
                        OFFSET 0 0 0
                      }
                    }
                    JOINT r_lid_JNT
                    {
                      OFFSET -7.85684 -6.72882 -9.63956
                      CHANNELS 6 Xposition Yposition Zposition Zrotation Xrotation Yrotation
                      End Site
                      {
                        OFFSET 0 0 0
                      }
                    }
                  }
                }
              }
            }
            JOINT l_FwClavicleRoot_JNT
            {
              OFFSET -3.21476 -4.3187 6.08742
              CHANNELS 6 Xposition Yposition Zposition Zrotation Xrotation Yrotation
              JOINT l_FwLegBlendRoot_JNT
              {
                OFFSET 21.051 0 0
                CHANNELS 6 Xposition Yposition Zposition Zrotation Xrotation Yrotation
                JOINT l_FwLegBlendMiddle_JNT
                {
                  OFFSET 33.1145 0 0
                  CHANNELS 6 Xposition Yposition Zposition Zrotation Xrotation Yrotation
                  JOINT l_FwLegBlendTip_JNT
                  {
                    OFFSET 29.9221 0 0
                    CHANNELS 6 Xposition Yposition Zposition Zrotation Xrotation Yrotation
                    JOINT l_FwLegBlendEnd_JNT
                    {
                      OFFSET 9.62649 0 0
                      CHANNELS 6 Xposition Yposition Zposition Zrotation Xrotation Yrotation
                      End Site
                      {
                        OFFSET 0 0 0
                      }
                    }
                  }
                }
              }
            }
            JOINT r_FwClavicleRoot_JNT
            {
              OFFSET 1.57499 -4.64749 -6.47788
              CHANNELS 6 Xposition Yposition Zposition Zrotation Xrotation Yrotation
              JOINT r_FwLegBlendRoot_JNT
              {
                OFFSET 1.1653 -12.7157 -16.7361
                CHANNELS 6 Xposition Yposition Zposition Zrotation Xrotation Yrotation
                JOINT r_FwLegBlendMiddle_JNT
                {
                  OFFSET 16.2308 -5.97551 28.2387
                  CHANNELS 6 Xposition Yposition Zposition Zrotation Xrotation Yrotation
                  JOINT r_FwLegBlendTip_JNT
                  {
                    OFFSET 26.7017 -9.19239 -9.89204
                    CHANNELS 6 Xposition Yposition Zposition Zrotation Xrotation Yrotation
                    JOINT r_FwLegBlendEnd_JNT
                    {
                      OFFSET 4.44874 -7.74942 3.58114
                      CHANNELS 6 Xposition Yposition Zposition Zrotation Xrotation Yrotation
                      End Site
                      {
                        OFFSET 0 0 0
                      }
                    }
                  }
                }
              }
            }
          }
        }
      }
    }
    JOINT r_legIKClavicle_Root_JNT
    {
      OFFSET -4.94604 1.23737 -11.8565
      CHANNELS 6 Xposition Yposition Zposition Zrotation Xrotation Yrotation
      JOINT r_legBlendRoot_JNT
      {
        OFFSET 13.2848 -5.74129 -7.13912
        CHANNELS 6 Xposition Yposition Zposition Zrotation Xrotation Yrotation
        JOINT r_legBlendMiddle_JNT
        {
          OFFSET 14.815 16.9375 15.0957
          CHANNELS 6 Xposition Yposition Zposition Zrotation Xrotation Yrotation
          JOINT r_legBlendEnd_JNT
          {
            OFFSET 23.6904 -6.58016 -3.54465
            CHANNELS 6 Xposition Yposition Zposition Zrotation Xrotation Yrotation
            JOINT r_legBlendTip_JNT
            {
              OFFSET 1.47758 -6.16068 -2.41079
              CHANNELS 6 Xposition Yposition Zposition Zrotation Xrotation Yrotation
              End Site
              {
                OFFSET 0 0 0
              }
            }
          }
        }
      }
    }
    JOINT tailRoot_JNT
    {
      OFFSET 2.82533 14.5514 0
      CHANNELS 6 Xposition Yposition Zposition Zrotation Xrotation Yrotation
      JOINT tailMid_JNT
      {
        OFFSET 7.87756 0 0
        CHANNELS 6 Xposition Yposition Zposition Zrotation Xrotation Yrotation
        JOINT tailEnd_JNT
        {
          OFFSET 6.52588 0 0
          CHANNELS 6 Xposition Yposition Zposition Zrotation Xrotation Yrotation
          End Site
          {
            OFFSET 0 0 0
          }
        }
      }
    }
    JOINT l_shoulderBkRoot_JNT
    {
      OFFSET -9.30511 7.998 11.2048
      CHANNELS 6 Xposition Yposition Zposition Zrotation Xrotation Yrotation
      JOINT l_shoulderBkMid_JNT
      {
        OFFSET 0 2.004 0
        CHANNELS 6 Xposition Yposition Zposition Zrotation Xrotation Yrotation
        End Site
        {
          OFFSET 0 0 0
        }
      }
    }
    JOINT r_shoulderBkRoot_JNT
    {
      OFFSET -9.30514 7.99801 -11.2048
      CHANNELS 6 Xposition Yposition Zposition Zrotation Xrotation Yrotation
      JOINT r_shoulderBkMid_JNT
      {
        OFFSET 0 -3.9713 0
        CHANNELS 6 Xposition Yposition Zposition Zrotation Xrotation Yrotation
        End Site
        {
          OFFSET 0 0 0
        }
      }
    }
  }
}
MOTION
Frames:	3
Frame Time:	0.0416667
0 0 0 0 0 -0 -0.0152381 59.8991 -42.995 -0.556366 11.3997 90.0313 -5.13341 0.937862 9.59625 -67.5878 61.2999 -67.9538 16.1374 -1.14543e-006 1.55883e-006 -26.3295 10.9041 101.858 27.0969 -3.55271e-015 -4.26326e-014 1.39419e-014 -1.12972e-015 -99.2652 24.8414 1.42109e-014 3.55271e-015 -0.150316 -0.160294 40.1416 6.77858 -7.10543e-015 -1.42109e-014 4.7394e-022 7.58303e-022 -7.95139e-016 -19.6271 -0.00602012 -0.0559287 -0.0182934 -1.02114 -2.40244 -19.457 1.49017 -0.6413 -1.37882 0.0878004 -1.31017 -18.1947 5.18381 0.677855 -17.7147 -0.465049 3.23598 -17.3257 8.05385 0.0509325 -16.9262 -0.504159 0.354097 -19.144 8.35871 -1.59872e-014 -16.6153 -1.41277e-015 -3.16872 -16.3943 7.24542 2.62013e-014 -23.8429 -0.0765665 -1.35174e-014 -19.3877 2.40349 -4.04121e-014 3.26212 6.75868e-015 2.67553 -13.796 -11.6756 2.75335e-014 -12.9302 0 -0 -15.825 14.8229 15.3879 90.9374 7.37471 -23.3328 6.55118 1.7053e-013 -3.55271e-015 -7.71366e-009 -7.59931 2.05853 6.73503 2.84217e-014 -5.32907e-014 4.41391e-032 7.95139e-016 -3.18055e-015 1.34858 -27.5886 -1.33227e-014 92.7985 1.31695e-014 -1.64991e-014 -15.825 14.8229 -15.3879 -14.8222 2.85467 -6.13959 -2.40814 5.46468 -2.69372 -7.71367e-009 -7.59931 2.05853 -2.40922 6.0083 -1.85921 9.93923e-017 0 1.28822e-015 4.72477 -9.87974 -4.44089e-016 92.7985 3.50417e-015 -90 4.96118 -0.690234 1.45871 -180 7.01671e-015 180 0 2.84217e-014 -14.9226 -9.93923e-017 3.18055e-015 1.98785e-016 0 0 3.94939 4.96962e-017 6.36111e-015 1.98785e-016 8.88178e-016 0 15.0019 9.93923e-017 3.18055e-015 -0 -4.16352 -0.485088 1.4795 4.96962e-017 6.36111e-015 1.98785e-016 9.35075e-005 -0.000392738 14.9226 9.93923e-017 3.18055e-015 -0 6.0207 -9.81639 1.77636e-015 112.799 3.23426e-015 -90 3.38327 -0.728579 2.22495 180 6.59355e-015 160 -3.55271e-015 2.84217e-014 -14.9599 -4.77083e-015 3.18055e-015 -3.18055e-015 -8.88178e-016 -0.0431035 3.99141 -3.31043e-032 6.36111e-015 2.98177e-016 1.77636e-015 0 14.9599 9.93923e-017 3.18055e-015 4.96962e-016 -2.08724 0.559133 2.49549 6.23464e-015 3.18055e-015 -20 3.55271e-015 0 14.9599 0 0 -1.59028e-015 -7.85698 -6.72885 9.63956 34.106 19.9417 85.9622 -7.85684 -6.72882 -9.63956 -145.894 19.9417 85.9622 -0.550066 -4.5028 6.72564 35.5238 26.2605 -112.654 21.051 4.74516e-005 6.12741e-005 40.4235 -28.1381 111.384 33.1145 8.3753e-007 -2.8019e-007 125.725 7.01671e-015 180 29.9221 6.12843e-014 -3.55271e-015 65.8243 -2.22784 0.399504 9.62649 1.95399e-014 7.10543e-015 29.859 -1.7467e-015 90 -2.77757 -4.58347 -6.72564 -49.1387 9.37248 -17.9831 1.16534 -12.7157 -16.7361 57.8404 -70.2249 144.031 16.2308 -5.97551 28.2387 140.985 2.75657 171.96 26.7017 -9.19239 -9.89204 32.8434 31.3982 24.7647 4.44874 -7.74942 3.58114 29.859 -1.7467e-015 90 -2.94474 -0.753318 -9.59625 -83.2143 -9.24999 4.74057 13.2848 -5.74129 -7.13912 -2.74815 9.42869 40.556 14.815 16.9375 15.0957 -10.6909 10.7041 -53.0431 23.6904 -6.58016 -3.54465 7.16019 0.992702 -49.8498 1.47758 -6.16068 -2.41079 -3.97569e-016 7.95139e-016 1.49089e-015 2.82533 14.5514 3.9968e-015 4.99157 -2.15868e-016 16.2345 7.87756 -4.26326e-014 -1.06581e-014 19.1217 0 0.23376 6.52588 1.42109e-014 1.42109e-014 6.38978e-015 0 -5.42932 -9.30511 7.998 11.2048 -6.8505 -4.18474e-016 -90 -1.77636e-015 4.11816 -7.10543e-015 1.92573e-016 1.59028e-015 1.2424e-017 -9.30514 7.99801 -11.2048 173.149 4.18474e-016 -90 -1.77636e-015 -2.05037 0 6.67792e-017 1.59028e-015 6.21202e-018 
0 0 0 0 0 -0 -0.0151209 59.9975 -42.9874 -0.586751 11.4148 89.7733 -5.42211 1.27819 9.59625 -70.8375 61.2992 -67.9549 16.1374 -1.17626e-006 1.51518e-006 -26.0577 10.8804 102.238 27.0969 7.10543e-015 -4.26326e-014 -7.12212e-017 -9.97198e-016 -98.1704 24.8414 -3.55271e-015 7.10543e-015 -0.134883 -0.157701 39.0044 6.77858 -3.55271e-015 -1.42109e-014 -1.92184e-017 0 7.95139e-016 -19.6354 -0.0748702 0.033741 0.184416 -1.06172 -2.04118 -19.4588 1.49342 -0.657284 -1.19996 0.0711333 -1.39005 -18.1774 5.13029 0.674635 -17.7323 -0.434182 3.22705 -17.2625 8.12466 0.0514542 -17.3001 -0.497669 0.354872 -19.144 8.35871 -1.68754e-014 -16.6153 -1.41789e-015 -3.12681 -16.3943 7.24542 2.70894e-014 -23.8429 -0.0765665 -1.33186e-014 -19.3877 2.40349 -4.13003e-014 3.26212 7.95139e-015 2.57677 -13.796 -11.6756 2.79776e-014 -12.9302 -1.98785e-016 -1.98785e-016 -15.825 14.8229 15.3879 90.9374 7.37471 -23.3328 6.55118 8.52651e-014 0 -7.71367e-009 -7.59931 2.05853 6.73503 0 -4.9738e-014 0 0 -0 1.34858 -27.5886 -1.19904e-014 92.7985 1.30701e-014 -1.66979e-014 -15.825 14.8229 -15.3879 -14.8222 2.85467 -6.13959 -2.40814 5.46468 -2.69372 -7.71367e-009 -7.59931 2.05853 -2.40922 6.0083 -1.85921 1.2424e-017 2.38542e-015 1.0871e-017 4.72477 -9.87974 8.88178e-016 92.7985 3.50417e-015 -90 4.96118 -0.690234 1.45871 180 7.01671e-015 -180 0 -2.84217e-014 -14.9226 4.96962e-017 0 -0 1.33227e-015 0 3.94939 -9.93923e-017 0 -0 0 0 15.0019 -4.96962e-017 0 -0 -4.16352 -0.485088 1.4795 -9.93923e-017 0 -0 9.35075e-005 -0.000392738 14.9226 -4.96962e-017 0 -0 6.0207 -9.81639 0 112.799 3.23426e-015 -90 3.38327 -0.728579 2.22495 180 6.59355e-015 160 3.55271e-015 0 -14.9599 -0 0 4.77083e-015 -2.66454e-015 -0.0431035 3.99141 1.98785e-016 -6.36111e-015 -0 0 0 14.9599 2.98177e-016 3.18055e-015 -0 -2.08724 0.559133 2.49549 0 0 -20 0 0 14.9599 -0 -6.36111e-015 -0 -7.85698 -6.72885 9.63956 34.106 19.9417 85.9622 -7.85684 -6.72882 -9.63956 -145.894 19.9417 85.9622 -0.00560794 -4.42782 6.72564 37.8296 26.2637 -112.658 21.051 5.03256e-005 5.88174e-005 40.8631 -29.1063 111.586 33.1145 8.3753e-007 -2.8019e-007 125.214 7.01671e-015 180 29.9221 7.10543e-014 -7.10543e-015 66.6024 -2.39581 0.376776 9.62649 2.13163e-014 3.55271e-015 29.859 -1.7467e-015 90 -2.76966 -4.58382 -6.72564 -49.1055 9.37247 -17.983 1.16534 -12.7157 -16.7361 58.6091 -69.8634 143.558 16.2308 -5.97551 28.2387 141.1 3.46627 169.864 26.7017 -9.19239 -9.89204 32.5034 32.1103 25.4171 4.44874 -7.74942 3.58114 29.859 -1.7467e-015 90 -2.80497 -0.823836 -9.59625 -82.0405 -9.24931 4.74043 13.2848 -5.74129 -7.13912 -3.52312 9.22731 40.6134 14.815 16.9375 15.0957 -9.7602 9.79956 -53.2066 23.6904 -6.58016 -3.54465 5.45545 0.715946 -49.761 1.47758 -6.16068 -2.41079 6.82776e-032 7.95139e-016 -4.91992e-015 2.82533 14.5514 1.13243e-014 4.99157 2.23633e-016 17.517 7.87756 -4.26326e-014 0 19.1217 0 0.590655 6.52588 2.84217e-014 0 6.76444e-015 4.77083e-015 -4.58839 -9.30511 7.998 11.2048 -6.8505 -4.18474e-016 -90 0 4.45004 0 8.07563e-017 1.59028e-015 -2.48481e-017 -9.30514 7.99801 -11.2048 173.149 4.18474e-016 -90 -1.77636e-015 -1.93397 0 1.18028e-016 0 4.96962e-017 
0 0 0 0 0 -0 -0.014733 60.2094 -42.9709 -0.599496 11.4404 89.1251 -5.73339 1.6956 9.59625 -74.7835 61.2972 -67.9552 16.1374 -1.20158e-006 1.46133e-006 -25.3648 10.8221 101.529 27.0969 0 -2.84217e-014 4.19647e-017 7.66256e-016 -96.2695 24.8414 3.55271e-015 2.13163e-014 -0.491976 -0.553915 34.3698 6.77858 -7.10543e-015 -2.13163e-014 -2.54305e-017 1.55301e-018 -0 -19.65 -0.225295 0.257799 0.631768 -1.09137 -1.12571 -19.4579 1.54311 -0.692465 -1.16977 0.0638843 -1.57797 -18.1592 5.06532 0.661366 -17.7515 -0.392276 3.17501 -17.185 8.21111 0.0525039 -17.7751 -0.483706 0.3561 -19.144 8.35871 -1.73195e-014 -16.6153 -1.22522e-015 -3.00238 -16.3943 7.24542 2.66454e-014 -23.8429 -0.0765665 -1.23247e-014 -19.3877 2.40349 -4.21885e-014 3.26212 7.15625e-015 2.31468 -13.796 -11.6756 2.79776e-014 -12.9302 3.97569e-016 4.96962e-017 -15.825 14.8229 15.3879 90.9374 7.37471 -23.3328 6.55118 8.52651e-014 2.4869e-014 -7.71367e-009 -7.59931 2.05853 6.73503 2.84217e-014 -4.9738e-014 4.41391e-032 7.95139e-016 -3.18055e-015 1.34858 -27.5886 -1.33227e-014 92.7985 1.30701e-014 -1.66979e-014 -15.825 14.8229 -15.3879 -14.8222 2.85467 -6.13959 -2.40814 5.46468 -2.69372 -7.71367e-009 -7.59931 2.05853 -2.40922 6.0083 -1.85921 -0 0 1.02343e-015 4.72477 -9.87974 -8.88178e-016 92.7985 3.50417e-015 -90 4.96118 -0.690234 1.45871 -180 7.01671e-015 -180 4.44089e-016 0 -14.9226 4.96962e-017 3.18055e-015 -0 0 0 3.94939 4.96962e-017 3.18055e-015 -1.98785e-016 -8.88178e-016 0 15.0019 0 3.18055e-015 -0 -4.16352 -0.485088 1.4795 4.96962e-017 3.18055e-015 -1.98785e-016 9.35075e-005 -0.000392738 14.9226 0 3.18055e-015 -0 6.0207 -9.81639 -8.88178e-016 112.799 3.23426e-015 -90 3.38327 -0.728579 2.22495 -180 6.59355e-015 160 3.55271e-015 2.84217e-014 -14.9599 -3.18055e-015 0 -0 -8.88178e-016 -0.0431035 3.99141 -2.98177e-016 0 3.97569e-016 0 0 14.9599 -9.93923e-017 9.54166e-015 1.98785e-016 -2.08724 0.559133 2.49549 0 0 -20 0 -2.84217e-014 14.9599 1.59028e-015 9.54166e-015 1.59028e-015 -7.85698 -6.72885 9.63956 34.106 19.9417 85.9622 -7.85684 -6.72882 -9.63956 -145.894 19.9417 85.9622 1.24816 -4.16963 6.72564 43.1087 26.2562 -112.647 21.051 5.63032e-005 5.24127e-005 42.3097 -31.603 112.357 33.1145 8.3753e-007 -2.8019e-007 120.871 7.01671e-015 180 29.9221 5.59552e-014 3.55271e-015 64.1417 -2.97614 0.0621801 9.62649 2.13163e-014 3.55271e-015 29.859 -1.7467e-015 90 -2.7153 -4.58611 -6.72564 -48.8821 9.37241 -17.983 1.16534 -12.7157 -16.7361 60.265 -69.0684 142.59 16.2308 -5.97551 28.2387 141.393 4.83406 165.781 26.7017 -9.19239 -9.89204 31.9939 33.2088 26.38 4.44874 -7.74942 3.58114 29.859 -1.7467e-015 90 -2.44186 -0.990877 -9.59625 -79.0783 -9.25048 4.7406 13.2848 -5.74129 -7.13912 -5.73271 8.745 40.9406 14.815 16.9375 15.0957 -7.23629 7.31298 -53.5856 23.6904 -6.58016 -3.54465 1.14416 0.0280464 -49.6591 1.47758 -6.16068 -2.41079 3.97569e-016 7.95139e-016 -3.97569e-016 2.82533 14.5514 9.76996e-015 4.99157 -9.93923e-017 19.0745 7.87756 -2.13163e-014 0 19.1217 -1.59028e-015 1.40818 6.52588 7.10543e-015 0 -6.36685e-015 0 -2.43344 -9.30511 7.998 11.2048 -6.8505 -4.18474e-016 -90 0 4.83728 0 0 0 -0 -9.30514 7.99801 -11.2048 173.149 4.18474e-016 -90 0 -1.63675 0 -2.11209e-016 0 9.93923e-017 
